<?xml version="1.0" standalone="no"?>
<!DOCTYPE svg PUBLIC "-//W3C//DTD SVG 20010904//EN"
 "http://www.w3.org/TR/2001/REC-SVG-20010904/DTD/svg10.dtd">
<svg version="1.0" xmlns="http://www.w3.org/2000/svg"
 width="451.000000pt" height="554.000000pt" viewBox="0 0 451.000000 554.000000"
 preserveAspectRatio="xMidYMid meet">
<metadata>
Created by potrace 1.16, written by Peter Selinger 2001-2019
</metadata>
<g transform="translate(0.000000,554.000000) scale(0.100000,-0.100000)"
fill="#000000" stroke="none">
<path d="M1525 5449 c-116 -12 -175 -38 -237 -107 -20 -22 -41 -36 -51 -34
-10 2 -35 -13 -58 -37 -23 -23 -46 -38 -51 -35 -6 4 -8 -2 -3 -15 7 -23 -17
-66 -30 -53 -4 4 -4 -3 -1 -15 6 -17 3 -23 -8 -23 -9 0 -13 -6 -10 -15 9 -22
-15 -85 -32 -85 -20 0 -44 -60 -44 -107 0 -53 24 -127 61 -186 43 -69 132
-174 186 -217 36 -29 56 -60 113 -175 86 -175 131 -243 229 -345 l77 -81 -55
-48 c-31 -26 -101 -75 -156 -108 -89 -54 -121 -73 -200 -117 -11 -6 -39 -24
-62 -39 -24 -15 -45 -27 -48 -27 -3 0 -24 -13 -47 -30 -22 -16 -47 -30 -55
-30 -12 0 -18 -13 -14 -34 1 -6 -1 -31 -4 -57 -5 -35 -10 -46 -21 -42 -9 3
-14 -1 -14 -12 0 -9 5 -13 10 -10 10 6 9 -85 -6 -490 -9 -252 -41 -370 -184
-670 -37 -76 -44 -102 -48 -168 -4 -69 -2 -82 17 -108 20 -27 21 -39 19 -176
-2 -168 0 -177 109 -403 31 -63 59 -124 64 -135 4 -11 17 -40 27 -65 11 -25
25 -63 32 -85 29 -88 79 -170 128 -208 54 -41 70 -44 131 -22 l42 14 -2 -137
c-1 -134 -1 -140 39 -267 22 -72 46 -156 52 -187 6 -32 16 -58 22 -58 10 0 7
87 -7 220 -2 19 -7 68 -10 108 -4 40 -13 94 -21 120 -7 26 -14 48 -14 50 0 1
17 2 37 0 21 -1 38 3 40 9 3 7 11 9 20 6 11 -4 14 -2 9 5 -4 7 -1 12 6 13 43
3 61 7 67 17 4 7 22 14 40 16 18 2 38 9 44 16 9 10 9 11 -3 5 -8 -5 -12 -4 -7
0 4 5 18 10 30 12 12 2 27 10 32 17 6 8 40 17 77 21 42 5 69 12 72 21 4 10 -2
14 -20 14 -14 0 -44 4 -67 9 -23 6 -60 13 -82 17 -22 3 -34 9 -27 11 6 3 12
11 12 18 0 16 89 87 100 80 4 -3 10 5 13 16 5 20 3 21 -36 14 -23 -4 -62 -9
-85 -11 -43 -3 -43 -2 -26 17 20 22 32 26 14 4 -9 -10 -9 -15 -1 -15 11 0 15
12 12 36 -1 6 9 19 21 30 19 16 20 16 9 1 -17 -22 -7 -34 15 -17 13 12 19 12
37 0 27 -16 207 -25 207 -9 0 5 4 8 9 4 5 -3 12 -1 16 5 3 5 2 10 -4 10 -6 0
-8 7 -5 15 4 9 -4 19 -23 27 -15 7 -30 15 -33 18 -11 11 -79 60 -84 60 -3 0
-27 20 -53 45 -26 24 -51 45 -55 45 -3 0 -32 27 -65 61 -61 64 -103 124 -103
149 0 12 2 13 9 1 7 -11 9 -11 13 0 3 10 13 7 36 -13 17 -14 55 -31 84 -37 29
-7 60 -18 69 -27 19 -17 39 -15 55 5 12 15 119 26 169 17 l35 -7 0 -81 c0 -72
3 -85 26 -117 15 -20 34 -41 42 -48 12 -10 13 -22 4 -75 -39 -224 -39 -221
-26 -303 6 -44 15 -113 18 -153 l6 -73 -57 37 c-32 20 -73 43 -92 51 -32 14
-33 13 -29 -4 4 -15 0 -19 -20 -18 -17 0 -26 -6 -28 -18 -1 -10 3 -17 9 -16
26 3 37 -2 37 -16 0 -8 6 -15 13 -15 17 0 99 -84 91 -93 -4 -4 -1 -7 6 -7 14
0 80 -66 80 -81 0 -6 4 -8 8 -5 19 11 95 -93 191 -263 42 -74 50 -98 29 -85
-7 4 -8 3 -4 -5 4 -6 11 -9 15 -6 5 2 13 -7 19 -20 15 -32 32 -32 32 0 0 46
-81 273 -126 351 -33 58 -41 81 -33 88 9 8 10 8 5 -1 -4 -7 -5 -13 -1 -13 3 0
10 12 15 26 6 14 15 22 20 19 6 -4 9 -1 8 7 -2 7 6 13 17 13 13 0 21 8 23 23
4 25 0 26 -47 12 -19 -5 -40 -6 -49 -1 -10 6 -21 4 -30 -5 -21 -21 -42 -17
-42 9 0 13 -5 28 -11 34 -8 8 -8 17 0 32 7 12 8 21 4 21 -5 0 -5 43 -1 95 4
53 7 171 5 263 l-2 168 26 -2 c15 -1 33 2 40 7 8 5 10 9 5 9 -5 0 -3 7 4 15 7
8 17 12 23 8 6 -3 7 -1 3 5 -4 8 3 16 18 22 14 5 26 12 26 15 0 4 -6 3 -12 -1
-21 -13 11 27 56 69 23 21 35 36 29 32 -7 -3 -13 -2 -13 4 0 20 17 19 65 -4
l49 -24 34 19 c18 11 30 14 26 8 -6 -10 -4 -10 8 0 14 11 19 9 34 -17 14 -24
23 -30 39 -25 11 4 22 8 24 10 3 2 -12 61 -33 132 -20 70 -38 136 -40 147 -2
11 -16 65 -31 120 -15 55 -29 114 -32 130 -12 82 -38 202 -64 308 -37 146 -71
372 -63 412 7 34 162 336 178 347 6 4 8 8 4 8 -10 0 23 83 36 92 8 5 7 8 -1 8
-12 0 5 48 79 218 22 50 44 92 50 92 5 0 7 4 4 9 -9 13 79 197 96 204 21 7 16
57 -8 86 -10 13 -36 44 -56 68 -38 45 -44 55 -30 51 11 -3 55 23 48 29 -3 3 1
12 9 20 20 19 19 56 -5 156 -23 97 -20 117 20 117 31 0 289 -53 472 -97 l116
-28 -25 -42 c-14 -24 -29 -43 -35 -43 -5 0 -7 -4 -4 -9 3 -4 -8 -60 -24 -124
-26 -102 -44 -215 -65 -406 -10 -94 -7 -476 6 -620 10 -116 9 -160 -4 -277 -9
-77 -21 -193 -28 -259 -6 -66 -15 -145 -18 -176 -8 -59 -1 -76 50 -132 25 -27
43 -66 35 -74 -19 -19 -106 -6 -164 25 -95 51 -122 41 -122 -43 0 -48 31 -219
47 -261 14 -36 21 21 12 97 -14 129 -16 124 41 127 28 1 62 7 77 13 18 6 30 6
36 0 7 -7 16 -6 29 6 37 33 28 18 -108 -192 -21 -33 -42 -68 -46 -78 -4 -10
-12 -16 -18 -12 -5 3 -8 0 -5 -7 6 -17 -78 -134 -94 -130 -7 1 -10 -1 -7 -6 3
-5 -10 -24 -29 -42 -39 -38 -42 -51 -19 -74 14 -15 14 -16 -2 -16 -21 0 -84
-21 -103 -35 -7 -5 -43 -37 -80 -71 -127 -117 -143 -129 -214 -166 -86 -45
-100 -64 -66 -91 21 -17 33 -18 89 -13 36 4 76 8 90 9 35 3 50 15 43 33 -5 13
-1 15 18 9 13 -4 33 -15 44 -25 11 -10 56 -44 100 -75 46 -33 69 -55 55 -52
-14 4 -34 7 -45 7 -12 0 -54 20 -95 44 -41 25 -76 44 -78 42 -11 -12 26 -61
70 -94 176 -130 239 -161 279 -136 8 4 21 9 29 9 42 4 50 6 65 21 25 25 124
30 169 9 30 -15 36 -22 32 -39 -21 -74 -18 -166 10 -307 15 -79 29 -146 31
-148 14 -18 31 60 33 147 0 13 3 21 8 19 4 -3 7 14 7 38 0 24 -2 42 -5 40 -3
-2 -5 18 -5 43 1 26 -3 55 -8 65 -5 10 -10 45 -12 77 -3 49 -2 58 10 53 8 -3
15 0 15 6 0 6 7 11 16 11 10 0 14 6 11 14 -3 8 1 17 8 20 16 6 98 -58 88 -68
-4 -3 1 -6 11 -6 9 0 14 -4 11 -10 -3 -5 0 -10 7 -10 7 0 29 -15 48 -33 45
-43 110 -85 135 -88 37 -4 74 11 68 29 -4 10 -2 13 5 8 18 -11 5 245 -15 294
-3 8 -7 22 -9 30 -20 98 -63 261 -84 314 -8 22 -5 30 24 61 18 19 31 37 28 40
-3 3 0 5 6 5 7 0 12 6 12 13 0 7 9 19 19 27 11 7 18 16 16 20 -2 3 12 23 31
44 19 20 34 41 34 47 0 5 5 9 10 9 6 0 10 7 10 15 0 8 5 15 10 15 6 0 10 5 10
12 0 6 11 26 25 43 13 18 21 35 18 39 -4 3 -2 6 4 6 5 0 20 24 32 53 46 103
64 142 72 159 5 10 9 24 9 33 0 8 7 34 15 59 22 65 28 140 27 337 -1 178 -13
280 -53 449 -22 96 -102 342 -132 410 -11 25 -22 52 -23 60 -2 8 -20 53 -39
100 -20 47 -59 144 -87 215 -56 142 -53 136 -129 315 -80 190 -130 260 -219
305 -61 30 -112 41 -270 60 -438 50 -406 44 -443 79 -61 56 -198 116 -267 116
-34 0 -137 56 -144 78 -3 9 -8 55 -12 102 -6 72 -11 90 -34 118 -25 31 -26 36
-18 90 18 112 -7 272 -42 272 -13 0 -13 97 0 105 17 10 11 25 -6 18 -14 -5
-16 -1 -12 20 3 15 2 25 -1 23 -16 -9 -43 14 -79 68 -38 58 -45 96 -16 96 7 0
16 5 20 12 5 8 0 9 -14 6 -12 -4 -22 -2 -22 3 0 5 7 9 15 9 8 0 15 5 15 11 0
6 -9 8 -20 4 -13 -4 -40 5 -77 27 -64 37 -131 68 -153 71 -8 2 -20 6 -27 10
-10 6 -132 33 -188 41 -11 1 -51 -1 -90 -5z m122 -70 c132 -18 263 -68 263
-102 0 -14 5 -17 21 -12 16 5 19 4 14 -5 -5 -9 -4 -11 4 -6 6 4 18 2 26 -4 18
-15 20 -50 3 -51 -7 -1 -2 -4 11 -8 16 -4 34 -25 52 -59 14 -29 22 -52 17 -52
-5 0 -4 -9 2 -20 6 -11 17 -19 25 -18 8 2 21 -6 29 -17 14 -19 10 -24 -56 -88
-39 -37 -67 -71 -64 -75 4 -3 11 0 16 8 7 10 10 -8 10 -55 0 -38 3 -81 7 -94
5 -18 -10 -8 -58 41 -42 43 -75 68 -97 73 -23 5 -40 18 -57 46 -14 21 -25 43
-25 49 0 5 -4 10 -10 10 -5 0 -10 7 -10 15 0 26 -47 122 -63 128 -24 9 -47
-30 -47 -80 0 -24 -4 -43 -9 -43 -5 0 -8 -7 -7 -17 1 -11 -22 -25 -79 -48
-100 -39 -200 -90 -242 -121 -17 -13 -36 -24 -42 -24 -5 0 -14 -7 -19 -16 -5
-9 -13 -14 -17 -12 -5 1 -10 -8 -11 -22 -2 -14 -5 -38 -7 -55 -3 -21 1 -33 13
-42 10 -7 20 -22 23 -35 9 -31 -75 63 -112 127 -47 82 -54 119 -42 220 6 50
13 117 16 149 6 76 14 103 25 86 5 -8 8 1 7 22 0 19 7 45 19 60 20 28 54 44
54 25 0 -6 15 4 33 21 18 18 37 29 42 25 4 -5 5 -3 1 4 -8 14 42 43 63 35 8
-3 11 0 7 6 -7 12 19 22 89 32 75 11 96 11 182 -1z m89 -536 c27 -27 81 -67
119 -90 39 -24 97 -70 130 -103 81 -82 90 -80 81 20 -3 44 -9 86 -12 94 -4 11
4 17 31 22 20 3 38 4 41 1 4 -3 11 -42 16 -87 6 -44 12 -79 14 -77 2 2 6 19 9
38 3 19 10 48 15 64 8 25 9 21 4 -20 -2 -27 -12 -72 -20 -98 -16 -48 -16 -48
-32 -26 -11 16 -12 26 -4 39 9 15 8 17 -8 13 -10 -3 -21 -12 -24 -20 -6 -15
28 -100 38 -95 24 10 34 -2 41 -45 4 -26 15 -60 26 -74 10 -15 19 -30 19 -34
0 -3 18 -32 39 -64 38 -56 39 -58 24 -89 -9 -18 -19 -32 -24 -32 -5 0 -9 -6
-9 -12 0 -7 -17 -35 -38 -63 -20 -27 -46 -63 -56 -80 -28 -43 -159 -205 -165
-205 -3 1 -24 16 -46 35 -39 33 -39 35 -20 49 11 9 25 14 32 11 7 -2 15 1 19
7 5 7 2 8 -6 3 -9 -5 -11 -4 -6 3 4 7 16 12 27 12 18 0 23 10 20 36 -1 6 6 18
16 25 14 12 16 12 8 0 -5 -9 -4 -12 3 -7 6 4 8 14 5 23 -4 10 -2 14 4 10 6 -4
10 1 9 11 0 9 5 16 12 14 8 -1 11 2 8 7 -4 5 -1 21 6 36 8 19 14 22 21 13 6
-9 7 -8 3 5 -7 21 11 60 23 52 5 -3 12 2 15 11 4 10 2 13 -6 8 -8 -5 -9 -2 -4
12 41 100 53 149 45 178 -5 17 -9 44 -9 61 -1 37 -24 83 -34 66 -11 -17 -16
-52 -7 -46 14 8 21 -67 12 -137 -1 -4 -7 -5 -15 -2 -10 4 -14 -1 -13 -14 0
-12 5 -18 9 -15 15 9 -4 -51 -35 -107 -55 -102 -89 -150 -100 -143 -6 3 -7 1
-3 -6 10 -15 -13 -43 -27 -34 -6 3 -7 1 -3 -5 10 -16 -44 -61 -87 -73 -59 -16
-114 11 -210 100 -96 90 -181 195 -239 294 -59 101 -168 345 -162 361 3 8 15
16 26 19 11 3 17 10 14 15 -9 15 41 55 68 55 14 0 24 3 21 7 -6 9 64 42 75 35
4 -3 10 0 12 6 2 6 16 12 31 12 15 1 27 5 27 10 0 4 3 6 8 5 4 -1 17 3 29 10
12 6 38 13 57 14 20 2 38 9 41 16 8 20 20 14 71 -35z m648 -662 l37 -38 -17
-104 c-9 -57 -27 -124 -39 -149 -17 -35 -23 -71 -28 -155 -7 -121 -14 -158
-31 -152 -6 2 -33 31 -61 64 -27 34 -56 62 -62 62 -7 1 -13 6 -13 11 0 6 -4 9
-9 8 -5 -2 -34 12 -64 30 -42 25 -54 38 -49 50 5 15 4 16 -13 2 -11 -9 -16
-10 -11 -2 8 13 66 46 66 37 0 -3 9 4 20 15 12 12 25 18 29 15 5 -2 12 2 15
11 3 8 10 13 15 9 6 -3 14 3 20 12 6 10 11 14 11 8 0 -15 58 54 79 95 22 42
38 98 46 163 4 26 10 47 14 47 4 0 24 -17 45 -39z m1081 -359 c27 -76 31 -99
22 -111 -10 -12 -9 -14 6 -8 20 7 22 -4 5 -22 -11 -10 -10 -11 3 -6 19 7 32
-19 23 -47 -3 -11 -1 -17 6 -16 7 2 23 -26 36 -61 19 -49 22 -66 13 -77 -9
-11 -8 -14 6 -14 11 0 15 -5 11 -16 -3 -8 -2 -13 3 -9 5 3 16 -8 24 -25 9 -17
11 -32 6 -36 -14 -8 -11 -24 4 -19 12 5 18 -6 53 -90 21 -52 52 -119 130 -282
180 -377 236 -550 249 -767 5 -80 2 -112 -16 -184 -41 -162 -133 -353 -283
-592 -57 -92 -59 -95 -119 -195 -30 -49 -64 -108 -75 -130 -11 -22 -45 -82
-75 -134 l-55 -93 -43 73 c-24 41 -46 76 -49 79 -3 3 -12 18 -20 33 -8 16 -25
40 -37 53 -13 14 -23 28 -23 32 0 10 -97 94 -129 111 -14 8 -54 24 -89 36
l-63 20 33 30 c25 23 28 25 13 5 l-20 -24 25 16 c14 8 25 23 25 31 0 9 4 19 9
24 5 5 6 2 1 -6 -5 -9 -4 -12 3 -7 7 4 12 13 12 20 0 12 66 81 78 81 4 0 6 3
5 6 -1 4 18 28 42 53 24 26 45 50 47 54 2 4 7 6 11 4 5 -1 6 2 3 6 -3 5 5 21
19 36 13 14 21 26 18 26 -4 0 3 9 15 21 12 11 20 24 17 30 -4 5 -2 9 4 9 5 0
12 14 16 30 4 17 11 30 17 30 6 0 8 7 5 15 -4 8 -2 17 4 21 6 3 8 12 5 20 -3
7 2 20 10 29 8 8 16 24 17 34 0 11 4 18 8 16 3 -3 14 4 24 15 20 22 7 28 -14
8 -11 -11 -11 -9 -2 9 7 15 17 20 29 17 13 -4 14 -3 4 4 -11 7 -10 12 3 26 9
9 21 16 26 16 5 0 9 6 9 14 0 8 5 18 12 22 6 4 8 3 5 -3 -9 -15 16 -23 34 -12
20 13 45 11 47 -3 0 -7 3 -22 6 -33 2 -11 5 -24 5 -29 1 -4 8 -6 16 -2 9 3 15
0 15 -10 0 -8 5 -12 10 -9 6 4 26 -3 45 -15 44 -27 127 -36 185 -19 25 7 49
12 53 11 5 -2 6 2 2 8 -6 10 7 14 34 11 8 -2 10 2 5 10 -5 9 -2 10 9 6 9 -3
18 0 21 9 4 10 1 13 -7 9 -6 -4 -4 0 5 8 29 24 9 26 -39 5 -39 -17 -61 -20
-142 -16 -53 2 -105 9 -116 15 -11 6 -27 14 -35 17 -72 28 -94 54 -189 219
-53 91 -110 182 -127 204 -45 56 -45 57 -52 146 -12 152 -7 736 7 857 7 63 15
142 17 175 2 33 7 71 11 85 3 14 7 32 7 40 1 8 7 41 14 72 10 42 17 56 28 51
8 -3 14 -1 14 3 0 5 3 20 7 33 4 17 3 22 -5 17 -13 -8 -17 6 -5 18 10 9 20
-11 58 -122z m-1682 49 c14 -6 28 -19 32 -30 6 -20 52 -41 91 -41 13 0 24 -3
24 -7 0 -13 -32 -42 -43 -39 -7 2 -8 1 -4 -2 4 -2 -9 -24 -29 -48 -31 -39 -35
-50 -30 -82 3 -20 -10 10 -29 68 -22 64 -33 115 -30 130 4 16 3 20 -3 12 -7
-11 -10 -10 -16 3 -16 43 -6 52 37 36z m780 -151 c-1 -3 6 -6 16 -7 27 -2 149
-53 161 -68 9 -10 6 -19 -9 -34 -12 -12 -19 -21 -17 -21 3 0 -20 -53 -50 -117
-31 -65 -59 -127 -64 -138 -5 -11 -20 -45 -33 -75 -14 -30 -33 -74 -42 -97 -9
-24 -21 -40 -26 -37 -5 3 -6 -1 -3 -9 3 -8 -21 -78 -53 -155 l-58 -142 -6 143
c-4 78 -9 156 -12 172 -21 102 -18 289 4 240 7 -15 8 -11 4 14 -5 30 8 140 21
184 3 9 10 15 15 12 5 -3 6 2 2 11 -5 13 -3 15 7 9 9 -5 11 -4 6 3 -4 7 9 49
28 95 20 46 36 91 36 102 0 13 11 4 38 -30 20 -27 36 -51 35 -55z m-1138 -93
c-19 -27 -19 -67 -1 -93 8 -11 37 -30 65 -44 28 -13 51 -27 51 -30 0 -13 -55
-52 -92 -66 -13 -5 -18 -17 -18 -46 0 -23 4 -37 10 -33 15 9 13 0 -12 -57
l-22 -51 48 -91 c27 -50 58 -107 70 -126 11 -19 42 -83 68 -143 25 -59 71
-153 101 -210 50 -95 71 -129 162 -277 48 -78 71 -187 34 -165 -5 4 -9 2 -9
-4 0 -5 -3 -17 -7 -27 -4 -11 -3 -15 4 -11 19 12 7 -43 -12 -57 -9 -7 -19 -27
-21 -45 -2 -18 -6 -38 -10 -44 -3 -7 4 -1 15 13 l21 25 -10 -28 c-14 -39 -35
-68 -43 -60 -4 3 -7 -1 -7 -11 0 -49 -120 -183 -281 -313 -40 -32 -82 -67 -94
-78 -56 -51 -86 -126 -64 -166 15 -30 -106 55 -134 93 -20 26 -20 27 0 60 10
18 26 33 34 33 7 0 24 6 37 13 13 7 28 12 35 9 6 -2 16 0 22 5 41 34 71 53 84
53 8 0 16 6 19 14 3 10 0 11 -9 5 -18 -10 10 27 29 39 7 5 10 12 7 17 -8 13
16 101 25 95 9 -5 5 242 -4 305 -13 90 -19 120 -37 191 -29 117 -146 382 -194
439 -20 24 -111 199 -135 259 -32 81 -72 251 -68 282 3 16 1 26 -3 23 -10 -6
-18 38 -20 111 -2 51 0 60 14 59 9 -1 17 2 17 8 0 5 5 6 10 3 6 -3 10 -2 10 3
0 9 196 95 217 95 7 0 13 4 13 8 0 9 39 24 71 28 5 0 7 5 4 11 -3 6 1 7 9 4
14 -5 14 -8 1 -27z m318 -130 c3 -66 1 -109 -5 -113 -13 -8 -1 -106 14 -115 5
-4 20 -91 33 -195 13 -104 35 -267 49 -363 14 -96 24 -176 22 -178 -2 -2 -9
11 -16 29 -28 71 -223 463 -234 470 -6 4 -8 8 -3 8 4 0 -8 30 -27 68 -52 100
-88 193 -82 209 3 8 1 11 -4 8 -6 -3 -10 3 -10 14 0 12 5 21 10 21 6 0 10 7
10 15 0 8 7 15 16 15 9 0 31 9 49 20 24 15 32 27 33 50 1 37 10 53 24 44 7 -5
9 -1 5 9 -3 9 1 21 11 29 13 11 15 11 8 -2 -4 -9 -1 -8 7 3 8 9 18 17 23 17 6
0 10 8 11 18 1 9 5 32 9 51 l7 33 17 -28 c13 -21 19 -59 23 -137z m408 142
c23 -19 23 -20 2 -10 -32 16 -42 13 -13 -4 14 -8 32 -14 41 -15 9 0 41 -18 73
-40 31 -22 61 -40 66 -40 5 0 10 -12 12 -27 6 -50 -9 -222 -19 -235 -14 -17
-41 -147 -47 -223 -5 -75 7 -230 34 -405 11 -74 31 -232 45 -350 35 -289 78
-519 136 -718 17 -57 33 -111 36 -119 6 -14 2 -14 -23 1 -30 18 -30 18 -78
-14 -26 -18 -49 -30 -52 -28 -2 3 -6 74 -9 159 -4 85 -10 206 -16 269 -5 63
-14 180 -19 260 -5 80 -17 217 -26 304 -8 88 -13 172 -10 188 4 20 2 27 -5 22
-8 -4 -10 10 -8 45 2 28 1 52 -3 54 -10 3 -31 213 -24 232 3 8 1 15 -3 17 -5
2 -18 71 -30 153 -12 83 -28 188 -35 235 -8 59 -22 105 -45 150 -48 92 -54
120 -34 142 20 23 26 23 54 -3z m-223 -118 c10 -6 11 -18 4 -49 -8 -32 -7 -44
5 -53 11 -10 11 -14 1 -21 -10 -6 -10 -10 -1 -16 7 -4 14 -55 17 -137 7 -143
14 -267 21 -360 3 -33 7 -116 10 -185 6 -117 27 -363 42 -474 5 -43 4 -49 -10
-43 -22 8 -22 -2 1 -20 16 -14 16 -14 0 -9 -10 3 -18 1 -18 -5 0 -6 9 -13 20
-16 15 -4 20 -14 20 -37 0 -31 -1 -32 -36 -28 -29 4 -35 8 -31 23 9 33 -12 31
-27 -3 -8 -18 -15 -27 -15 -20 -1 8 -6 10 -13 6 -7 -5 -1 6 13 23 24 29 33 80
13 76 -5 -1 -8 20 -8 45 1 26 -5 69 -13 95 -11 38 -13 95 -9 270 6 259 -5 428
-35 558 -12 52 -23 109 -23 127 -1 18 -6 32 -13 32 -15 0 -17 16 -3 25 11 7
-8 55 -22 55 -19 0 -6 18 17 24 31 8 24 26 -10 26 -20 0 -25 7 -31 35 -3 20
-4 38 -1 41 2 3 22 -15 42 -40 34 -42 64 -53 51 -20 -3 8 -1 14 5 14 6 0 9 7
5 15 -3 8 -1 15 3 15 5 0 12 7 15 16 5 14 4 15 -9 4 -14 -12 -22 0 -8 13 8 9
15 9 31 -2z m-865 -406 c23 -161 120 -414 227 -590 45 -75 108 -203 120 -245
7 -25 3 -45 -19 -103 -16 -40 -37 -105 -47 -145 -14 -56 -22 -71 -34 -67 -126
49 -326 66 -387 33 -20 -11 -34 -14 -38 -8 -8 14 4 52 15 45 4 -3 6 5 3 17 -4
19 -3 20 7 8 9 -12 10 -11 5 7 -3 13 8 69 29 135 47 155 73 261 82 335 3 35 9
61 13 59 6 -4 6 86 -3 419 -5 212 2 308 16 195 4 -36 9 -78 11 -95z m2337
-864 c25 -46 59 -100 77 -121 31 -36 32 -38 14 -54 -9 -9 -23 -16 -29 -16 -7
0 -12 -6 -12 -14 0 -8 -12 -28 -26 -43 -24 -26 -25 -27 -21 -5 3 12 2 20 -3
17 -7 -4 -16 17 -25 60 -9 39 -35 211 -39 260 -6 55 -5 57 7 30 6 -17 32 -68
57 -114z m-1957 -67 c2 -10 7 -26 10 -34 14 -34 27 -108 27 -162 0 -111 -46
-288 -71 -272 -8 4 -9 3 -5 -4 4 -7 2 -20 -4 -29 -8 -14 -10 6 -6 82 7 140 27
305 37 300 4 -3 4 6 1 20 -7 24 -3 130 4 123 2 -3 5 -13 7 -24z m575 -140 c5
-9 13 -17 18 -17 13 -3 8 -95 -6 -112 -9 -11 -9 -15 -1 -15 9 0 9 -5 1 -20 -9
-16 -8 -20 5 -20 18 0 20 -21 3 -39 -10 -11 -10 -13 0 -7 14 8 15 5 6 -18 -3
-9 -10 -13 -15 -10 -5 3 -9 -5 -9 -18 0 -19 2 -20 11 -8 8 11 9 -7 5 -64 -3
-43 -6 -110 -6 -148 0 -48 -4 -68 -12 -68 -7 0 -60 23 -116 50 -57 28 -108 50
-112 50 -5 0 -22 -12 -37 -26 -24 -22 -35 -25 -73 -21 -24 3 -46 10 -48 16 -2
6 -9 8 -14 5 -7 -4 -8 -2 -4 4 4 6 14 8 23 5 11 -4 14 -3 9 5 -5 8 -2 10 8 6
11 -4 16 0 16 13 0 21 52 77 63 68 4 -3 5 -2 2 1 -6 9 34 64 47 64 5 0 30 -22
55 -50 25 -27 51 -50 59 -50 8 0 14 -4 14 -8 0 -10 72 -34 79 -27 2 3 -7 14
-20 25 -55 47 -92 86 -100 108 -11 28 -1 75 13 66 6 -4 7 2 3 16 -5 17 -4 21
6 15 8 -6 11 -4 7 7 -9 22 29 101 44 92 8 -5 9 -2 4 11 -10 26 16 124 34 129
27 7 29 6 38 -10z m-831 -95 c136 -15 140 -17 141 -76 1 -27 8 -85 17 -128 19
-100 19 -109 -1 -101 -9 3 -12 2 -9 -5 4 -6 -2 -13 -14 -16 -12 -3 -21 -10
-21 -17 0 -6 -4 -6 -9 3 -23 37 -111 -31 -111 -87 0 -11 -4 -24 -10 -27 -5 -3
-10 -11 -10 -16 0 -6 5 -7 10 -4 6 4 10 -6 10 -22 0 -15 7 -41 15 -57 9 -16
13 -36 10 -43 -2 -8 0 -11 5 -8 19 11 10 -6 -15 -31 -14 -14 -32 -38 -40 -55
-9 -16 -20 -27 -25 -24 -6 3 -7 -1 -4 -9 3 -8 -7 -47 -22 -86 l-28 -71 -36
108 c-20 59 -48 131 -63 159 -52 102 -96 274 -92 359 1 17 3 63 3 103 l2 72
41 0 c62 0 182 -21 203 -35 28 -21 47 -9 34 21 -24 53 -111 75 -215 56 -51 -9
-53 -9 -53 14 0 12 6 25 13 27 22 9 176 7 274 -4z m562 -730 c35 -32 68 -59
74 -59 6 0 8 -3 4 -6 -3 -3 -1 -17 4 -31 9 -24 8 -24 -23 -18 -18 4 -45 14
-60 21 -30 15 -74 19 -80 6 -5 -12 -118 -73 -118 -65 0 5 -4 2 -9 -6 -5 -7
-46 -35 -92 -62 -82 -47 -84 -48 -91 -26 -3 12 -6 39 -7 60 -1 25 -6 37 -16
38 -8 1 -21 2 -27 3 -19 2 -21 33 -7 115 9 53 15 69 20 55 4 -10 8 -14 8 -9 1
6 45 10 112 9 60 0 112 3 115 7 2 4 14 5 26 1 13 -3 19 -1 15 6 -9 13 4 17 52
19 32 2 45 -6 100 -58z m1281 -39 c32 -22 103 -125 144 -208 l27 -53 -18 -50
c-24 -69 -53 -83 -153 -76 -80 6 -180 36 -269 82 -46 23 -58 25 -74 15 -12 -7
-17 -7 -12 -1 9 16 -7 13 -59 -10 -26 -11 -54 -18 -62 -15 -8 3 -14 1 -14 -4
0 -6 -5 -10 -11 -10 -6 0 0 13 13 29 12 17 31 41 41 55 18 26 45 37 31 14 -4
-7 -5 -11 -1 -8 3 3 5 9 5 13 0 12 53 67 64 67 5 0 6 -6 2 -12 -4 -7 24 16 62
52 38 35 71 65 73 67 2 2 1 3 -3 3 -4 0 -34 -25 -67 -57 -32 -31 -59 -53 -59
-50 0 8 97 99 118 111 9 5 27 10 41 11 49 4 54 5 47 12 -4 4 14 15 41 24 64
22 61 22 93 -1z m525 -194 c-44 -54 -39 -62 6 -11 17 19 35 35 40 35 11 0 45
-67 53 -105 3 -16 8 -73 11 -125 3 -52 8 -112 11 -134 6 -36 5 -38 -17 -31
-26 7 -96 53 -144 94 -17 14 -56 44 -88 65 -47 33 -56 43 -51 60 6 19 5 20
-12 6 -12 -9 -10 -4 5 12 23 26 24 26 49 10 24 -16 25 -15 49 13 13 17 28 29
33 28 5 -2 8 6 7 16 -1 17 74 123 82 115 2 -1 -14 -23 -34 -48z m-2119 -78
c-20 -17 -41 -40 -47 -49 -9 -17 -7 -17 24 -4 19 8 57 17 86 21 l53 7 -15 -29
c-24 -46 -123 -134 -150 -134 -8 0 -19 62 -24 137 l-4 71 36 -2 c20 -1 39 2
41 6 3 5 12 8 21 8 10 0 3 -11 -21 -32z"/>
<path d="M4004 2386 c-12 -12 -25 -31 -28 -43 -11 -35 -67 -84 -131 -113 -78
-37 -110 -46 -100 -30 4 7 -5 4 -21 -6 -28 -19 -28 -19 -21 1 7 19 6 19 -11
-1 -11 -13 -35 -24 -58 -28 -21 -3 -40 -5 -41 -6 -12 -1 0 -20 13 -20 9 0 12
-5 8 -12 -5 -8 -2 -9 12 -3 22 9 49 10 82 2 13 -4 20 -2 17 4 -9 13 19 11 34
-3 9 -9 12 -9 7 -1 -6 10 57 32 107 36 9 1 17 5 17 9 0 4 3 7 8 7 17 -3 35 1
29 7 -3 4 8 16 25 28 17 11 32 30 34 41 1 11 8 45 17 75 11 43 15 49 19 30 3
-22 4 -23 9 -5 3 11 3 27 0 36 -5 14 -9 13 -27 -5z"/>
<path d="M2815 3318 c-46 -16 -72 -45 -131 -145 -50 -85 -87 -132 -71 -89 4 9
3 15 -2 12 -5 -3 -11 -15 -14 -27 -6 -21 -5 -22 136 -15 184 8 180 8 196 24 7
7 19 11 26 8 16 -6 80 40 80 57 1 7 6 11 13 10 7 -2 12 0 13 5 2 29 9 65 14
82 5 15 2 20 -12 20 -11 0 -23 4 -28 8 -9 8 -119 44 -170 56 -11 2 -33 0 -50
-6z"/>
<path d="M3145 2440 c-5 -8 -20 -45 -32 -83 -23 -66 -32 -89 -100 -237 -31
-67 -65 -125 -100 -170 -156 -199 -190 -237 -205 -232 -5 1 -7 -1 -6 -5 3 -15
-14 -43 -27 -43 -13 0 -30 -48 -21 -57 3 -3 34 22 69 56 35 33 67 58 72 53 4
-4 5 -2 2 4 -8 14 36 57 48 47 4 -5 5 -3 2 3 -3 6 8 24 25 40 17 16 28 23 24
17 -5 -9 -2 -11 9 -7 8 3 22 21 31 39 9 20 21 32 29 29 8 -3 12 2 12 13 -1 11
4 17 13 15 8 -2 12 0 8 3 -4 4 7 28 24 52 36 54 61 118 89 233 11 47 27 113
35 147 17 66 16 110 -1 83z"/>
<path d="M2575 496 c-59 -30 -85 -49 -85 -65 0 -15 6 -14 38 6 26 17 26 17 13
0 -12 -15 -12 -17 3 -11 9 3 16 13 16 21 0 11 15 14 78 12 42 -1 88 -8 102
-15 56 -29 133 -45 239 -49 69 -2 109 0 106 5 -4 6 3 10 15 10 12 0 30 5 41
10 11 6 36 12 57 13 25 1 37 7 37 17 0 8 7 14 15 13 10 -2 16 7 17 27 l2 30
-28 -21 c-43 -31 -119 -34 -261 -9 -69 12 -177 24 -240 26 -108 5 -118 4 -165
-20z"/>
</g>
</svg>
